# xmcd
#
# Track frame offsets: 
#        150
#        25170
#        42703
#        58243
#        77613
#        92483
#        112433
#        135995
#        161930
#        175458
#        192613
#
# Disc length: 2916 seconds
#
# Revision: 4
# Processed by: cddbd v1.4PL0 Copyright (c) Steve Scherf et al.
# Submitted via: ExactAudioCopy v0.95a3
#
DISCID=a10b620b
DTITLE=Deep Forest - Deep Forest
DYEAR=1993
DGENRE=New Age
TTITLE0=Deep Forest
TTITLE1=Sweet Lullaby
TTITLE2=Hunting
TTITLE3=Night Bird
TTITLE4=The First Twilight
TTITLE5=Savana Dance
TTITLE6=Desert Walk
TTITLE7=White Whisper
TTITLE8=The Second Twilight
TTITLE9=Sweet Lullaby (Ambient Mix)
TTITLE10=Forest Hymn
EXTD=
EXTT0=
EXTT1=
EXTT2=
EXTT3=
EXTT4=
EXTT5=
EXTT6=
EXTT7=
EXTT8=
EXTT9=
EXTT10=
PLAYORDER=
